<svg width="25" height="24" viewBox="0 0 25 24" fill="none" xmlns="http://www.w3.org/2000/svg">
<path d="M13.5781 10.4858H13.8796L14.0203 10.2192C14.4024 9.49513 15.1968 8.75 16.6514 8.75C18.2627 8.75 19.1016 9.26064 19.5772 10.0075C20.0862 10.807 20.25 11.9786 20.25 13.4487V19H17.8325V14.1372V14.137C17.8325 13.5199 17.8325 12.6898 17.5655 12.0156C17.4263 11.664 17.206 11.3296 16.8575 11.0866C16.508 10.8428 16.0721 10.7207 15.5542 10.7207C15.0456 10.7207 14.6121 10.8201 14.2562 11.0289C13.896 11.2401 13.6526 11.5416 13.4921 11.8807C13.1872 12.5247 13.1675 13.3446 13.1675 14.0464V19H10.75V8.98291H13.0298V9.98584V10.4858H13.5298H13.5781ZM5.5 4.98047C5.5 4.16284 6.16334 3.5 6.98193 3.5C7.79992 3.5 8.4624 4.16299 8.4624 4.98047C8.4624 5.80469 7.79175 6.48145 6.98047 6.48145C6.16966 6.48145 5.5 5.80517 5.5 4.98047ZM8.19287 19H5.77246V8.98291H8.19287V19Z" fill="white" stroke="white"/>
</svg>
