<svg width="317" height="79" viewBox="0 0 317 79" fill="none" xmlns="http://www.w3.org/2000/svg">
<g clip-path="url(#clip0_217_5682)">
<path d="M104.158 24.217C103.728 24.7571 103.306 25.2971 102.892 25.8372C102.478 26.3772 102.056 26.9172 101.625 27.4573C101.271 27.1149 100.893 26.7991 100.492 26.5124C99.9912 26.1508 99.4591 25.8346 98.9021 25.5676C98.2616 25.2626 97.594 25.0184 96.9079 24.8381C96.1424 24.6368 95.3539 24.5368 94.5624 24.5408C92.4775 24.5408 90.9324 25.135 89.927 26.3235C88.926 27.4959 88.389 28.9946 88.4175 30.5364C88.4175 31.4386 88.5883 32.1949 88.9299 32.8054C89.2628 33.4097 89.7223 33.9348 90.2769 34.3449C90.8591 34.7741 91.4932 35.128 92.1641 35.3981C92.8659 35.6871 93.5936 35.9576 94.3472 36.2096C95.5331 36.6412 96.8088 37.1544 98.1744 37.7491C99.5334 38.3385 100.811 39.1007 101.975 40.0167C103.154 40.9458 104.144 42.0919 104.891 43.3932C105.665 44.7252 106.051 46.3277 106.051 48.2007C106.074 49.7065 105.771 51.1994 105.161 52.5762C104.59 53.8403 103.762 54.9713 102.729 55.897C101.684 56.8277 100.466 57.5434 99.1451 58.0035C97.7599 58.4929 96.3008 58.7397 94.8318 58.733C93.4822 58.7352 92.1391 58.5443 90.8435 58.166C89.6076 57.8121 88.4144 57.3228 87.2857 56.7071C86.2596 56.1499 85.2931 55.4893 84.4014 54.7354C83.6447 54.1129 82.9819 53.3843 82.4336 52.572L85.2374 49.7639C85.7629 50.3256 86.3192 50.8577 86.9038 51.3576C87.5644 51.9251 88.2688 52.4394 89.0104 52.8958C89.7869 53.3756 90.6201 53.7569 91.4906 54.031C92.4341 54.3269 93.4182 54.4727 94.4069 54.4631C95.3208 54.4665 96.2298 54.3296 97.1023 54.0574C97.9322 53.8047 98.7088 53.4021 99.3937 52.8694C100.063 52.338 100.604 51.6633 100.978 50.8949C101.388 50.0354 101.591 49.0918 101.571 48.1396C101.571 46.7001 101.221 45.5297 100.52 44.6284C99.8098 43.7216 98.9314 42.9606 97.9328 42.3872C96.9175 41.797 95.8421 41.3172 94.7249 40.956C93.6139 40.5966 92.6418 40.2543 91.8086 39.9292C91.1606 39.6772 90.3875 39.335 89.4895 38.9024C88.555 38.4454 87.6923 37.8542 86.9288 37.1475C86.0812 36.3578 85.379 35.4251 84.8541 34.3921C84.2792 33.2945 83.9737 31.9513 83.9375 30.3627C83.9037 29.1557 84.0674 27.9514 84.4222 26.7973C84.7868 25.6075 85.3945 24.5065 86.2067 23.564C87.0325 22.5923 88.1286 21.8003 89.4951 21.188C90.8615 20.5757 92.5349 20.2695 94.5152 20.2695C96.0351 20.2827 97.5433 20.5364 98.984 21.0212C100.528 21.5289 102.253 22.5941 104.158 24.217Z" fill="url(#paint0_linear_217_5682)"/>
<path d="M120.846 58.5007C119.476 58.5141 118.112 58.3116 116.807 57.9008C115.624 57.5278 114.529 56.9223 113.588 56.1204C112.659 55.314 111.928 54.3079 111.45 53.1791C110.938 52.006 110.683 50.6589 110.684 49.1377V30.1719H114.032V49.0143C114.015 49.939 114.187 50.8575 114.537 51.7146C114.851 52.4718 115.334 53.149 115.949 53.6959C116.578 54.2424 117.312 54.6572 118.108 54.9151C119.893 55.4767 121.81 55.4767 123.596 54.9151C124.391 54.6569 125.125 54.2421 125.755 53.6959C126.371 53.1457 126.859 52.4698 127.186 51.7146C127.549 50.8607 127.728 49.9408 127.711 49.0143V30.1719H131.061V49.1363C131.061 50.6575 130.798 52.0047 130.273 53.1777C129.783 54.305 129.045 55.3098 128.114 56.1191C127.17 56.9221 126.072 57.5277 124.886 57.8994C123.58 58.3108 122.216 58.5138 120.846 58.5007Z" fill="url(#paint1_linear_217_5682)"/>
<path d="M150.03 33.072C149.708 33.4698 149.393 33.8675 149.086 34.2652C148.778 34.6629 148.464 35.0611 148.143 35.4597C147.879 35.207 147.597 34.974 147.298 34.7625C146.925 34.4965 146.528 34.2637 146.113 34.0668C145.635 33.8417 145.138 33.6618 144.626 33.5295C144.055 33.3804 143.466 33.3067 142.875 33.3104C141.322 33.3104 140.17 33.7481 139.42 34.6234C138.674 35.4871 138.273 36.5915 138.294 37.7275C138.275 38.3095 138.408 38.8865 138.68 39.4028C138.929 39.8474 139.272 40.234 139.685 40.5367C140.119 40.8521 140.592 41.1126 141.092 41.3124C141.613 41.5246 142.156 41.7257 142.718 41.9089C143.603 42.2277 144.554 42.6056 145.571 43.0428C146.583 43.4779 147.535 44.0396 148.403 44.7141C149.28 45.3986 150.016 46.2427 150.572 47.2009C151.147 48.1837 151.435 49.3644 151.436 50.7431C151.454 51.8522 151.228 52.9518 150.773 53.9657C150.348 54.897 149.731 55.7304 148.962 56.4125C148.182 57.0978 147.275 57.6249 146.29 57.9639C145.258 58.3244 144.17 58.5062 143.076 58.5012C142.07 58.5043 141.069 58.3651 140.103 58.0879C139.183 57.8267 138.295 57.4664 137.456 57.0132C136.691 56.6029 135.971 56.1163 135.306 55.5611C134.742 55.103 134.248 54.5671 133.839 53.9698L135.929 51.9032C136.321 52.3171 136.737 52.709 137.174 53.077C137.665 53.4954 138.189 53.8746 138.741 54.2109C139.32 54.5641 139.94 54.8451 140.589 55.0472C141.291 55.2643 142.023 55.3717 142.758 55.3655C143.439 55.3673 144.117 55.2665 144.767 55.0665C145.386 54.8805 145.964 54.5839 146.475 54.1916C146.975 53.8012 147.379 53.305 147.659 52.7395C147.967 52.1037 148.119 51.4051 148.102 50.7004C148.102 49.6395 147.841 48.7775 147.318 48.1143C146.79 47.4449 146.135 46.8833 145.39 46.461C144.633 46.026 143.832 45.6727 142.999 45.4071C142.169 45.1407 141.446 44.8886 140.83 44.6507C140.348 44.467 139.772 44.2148 139.102 43.8943C138.406 43.5577 137.763 43.1223 137.194 42.602C136.562 42.0201 136.039 41.3332 135.647 40.5725C135.218 39.7633 134.991 38.775 134.965 37.6076C134.94 36.7187 135.062 35.8317 135.325 34.9816C135.595 34.1033 136.047 33.2902 136.652 32.594C137.326 31.8364 138.163 31.2384 139.102 30.8442C140.119 30.396 141.365 30.1719 142.839 30.1719C143.973 30.1807 145.099 30.3667 146.174 30.723C147.325 31.0959 148.61 31.8789 150.03 33.072Z" fill="url(#paint2_linear_217_5682)"/>
<path d="M174.825 30.1719V33.3437H165.419V58.271H162.083V33.3437H152.596V30.1719H174.825Z" fill="url(#paint3_linear_217_5682)"/>
<path d="M200.065 58.2703H196.748C195.975 56.4328 195.196 54.5879 194.411 52.7356C193.625 50.8833 192.846 49.0384 192.073 47.2009H183.281C182.508 49.0403 181.729 50.8852 180.943 52.7356C180.158 54.586 179.379 56.4309 178.606 58.2703H175.288C177.367 53.3693 179.432 48.4942 181.483 43.6449C183.534 38.7956 185.598 33.9205 187.677 29.0195C189.755 33.9214 191.819 38.7965 193.87 43.6449C195.921 48.4933 197.986 53.3684 200.065 58.2703ZM188.036 37.691L187.677 36.3696C187.306 37.6935 186.838 38.9884 186.277 40.2438C185.723 41.4965 185.177 42.7621 184.639 44.0406H190.713C190.261 42.9752 189.814 41.9144 189.375 40.8582C188.935 39.802 188.489 38.7463 188.036 37.691Z" fill="url(#paint4_linear_217_5682)"/>
<path d="M204.464 30.1719H207.937V58.271H204.464V30.1719Z" fill="url(#paint5_linear_217_5682)"/>
<path d="M238.271 30.3024V59.6522C234.817 55.9943 231.389 52.3605 227.987 48.7508C224.585 45.1411 221.159 41.5045 217.708 37.8411C217.568 37.6537 217.446 37.4802 217.326 37.3191C217.206 37.1581 217.078 36.9859 216.944 36.7985C216.971 37.0123 216.99 37.2261 217.004 37.4399C217.018 37.6537 217.038 37.8675 217.066 38.0813V58.3693H213.727V29.0195C217.181 32.7625 220.609 36.4713 224.01 40.1458C227.411 43.8203 230.839 47.5291 234.294 51.2721C234.428 51.4572 234.555 51.6312 234.676 51.7941C234.796 51.9538 234.923 52.1287 235.058 52.3147C235.03 52.1009 235.01 51.8885 234.997 51.6733C234.983 51.4581 234.963 51.2457 234.937 51.0319V30.3024H238.271Z" fill="url(#paint6_linear_217_5682)"/>
<path d="M244.06 58.2726V20.5H248.551V54.0101H268.141V58.2726H244.06Z" fill="url(#paint7_linear_217_5682)"/>
<path d="M297.086 58.2703H293.769C292.996 56.4328 292.217 54.5879 291.431 52.7356C290.646 50.8833 289.867 49.0384 289.093 47.2009H280.301C279.528 49.0403 278.748 50.8852 277.963 52.7356C277.177 54.586 276.398 56.4309 275.625 58.2703H272.31C274.388 53.3693 276.454 48.4942 278.505 43.6449C280.556 38.7956 282.621 33.9205 284.7 29.0195C286.777 33.9214 288.842 38.7965 290.895 43.6449C292.948 48.4933 295.012 53.3684 297.086 58.2703ZM285.06 37.691L284.701 36.3723C284.33 37.6963 283.863 38.9912 283.301 40.2466C282.747 41.4993 282.201 42.7649 281.663 44.0434H287.738C287.285 42.978 286.839 41.9172 286.399 40.861C285.959 39.8048 285.513 38.7481 285.06 37.691Z" fill="url(#paint8_linear_217_5682)"/>
<path d="M299.865 58.2654V30.1725H307.208C308.417 30.1613 309.623 30.2962 310.799 30.5741C311.795 30.8023 312.736 31.225 313.568 31.8179C314.337 32.3869 314.95 33.1388 315.354 34.0051C315.782 34.9019 315.996 35.9673 315.996 37.2013C315.996 38.8605 315.602 40.3187 314.812 41.5759C314.023 42.833 312.826 43.6891 311.221 44.1439C311.983 44.3104 312.719 44.5807 313.408 44.9471C314.106 45.3134 314.731 45.8031 315.253 46.3924C315.787 46.9991 316.214 47.691 316.518 48.4393C316.849 49.2687 317.012 50.155 317 51.0477C317 52.252 316.745 53.3021 316.237 54.198C315.735 55.0868 315.043 55.854 314.21 56.445C313.328 57.0661 312.343 57.528 311.302 57.8096C310.204 58.1176 309.07 58.2729 307.93 58.271L299.865 58.2654ZM303.192 33.3437V42.5333H307.525C309.102 42.5333 310.355 42.0919 311.282 41.209C312.21 40.3261 312.671 39.1625 312.667 37.7182C312.667 36.1433 312.185 35.0196 311.222 34.347C310.259 33.6744 309.002 33.34 307.45 33.3437H303.192ZM303.192 45.7045V55.0957H307.645C308.429 55.1015 309.211 55.0081 309.971 54.8177C310.654 54.6482 311.3 54.3558 311.878 53.9548C312.412 53.5816 312.858 53.0946 313.182 52.529C313.516 51.9141 313.682 51.2219 313.663 50.5224C313.682 49.7626 313.49 49.0125 313.106 48.3559C312.74 47.7489 312.239 47.2341 311.643 46.8509C310.995 46.4445 310.283 46.1526 309.536 45.988C308.733 45.8017 307.912 45.7084 307.088 45.7101L303.192 45.7045Z" fill="url(#paint9_linear_217_5682)"/>
<path d="M67.9477 19.2732L34.3837 0L0.875274 19.2433L0 19.7454V59.2385L33.6497 78.5624L34.3837 78.9839L35.1178 78.5624L68.7675 59.2385V19.7454L67.9477 19.2732ZM44.9728 34.7047L49.1616 41.9184L23.9637 48.1094C23.825 48.145 23.678 48.1292 23.5501 48.0649C23.4222 48.0007 23.3221 47.8924 23.2686 47.7602C23.215 47.628 23.2116 47.481 23.259 47.3465C23.3064 47.212 23.4013 47.0992 23.5261 47.0292L44.9728 34.7047ZM21.5856 44.4657L39.9249 26.0401L43.8289 32.77L22.1576 45.2073C22.1086 45.2447 22.0527 45.2721 21.9931 45.288C21.9335 45.3038 21.8714 45.3079 21.8102 45.2999C21.749 45.2918 21.69 45.2719 21.6366 45.2412C21.5832 45.2105 21.5364 45.1697 21.4988 45.121C21.4612 45.0723 21.4337 45.0167 21.4177 44.9574C21.4018 44.8981 21.3977 44.8363 21.4058 44.7755C21.4138 44.7146 21.4339 44.6559 21.4647 44.6028C21.4956 44.5496 21.5367 44.5031 21.5856 44.4657ZM50.3333 43.9613L54.4179 51.0022H25.5777C25.4612 51.002 25.3488 50.9594 25.2617 50.8825C25.1746 50.8056 25.1189 50.6996 25.1049 50.5846C25.0909 50.4696 25.1198 50.3535 25.186 50.2581C25.2522 50.1628 25.3511 50.0949 25.4642 50.0671L50.3333 43.9613ZM36.5974 15.7724L66.1231 21.2333L56.143 49.4429L36.5974 15.7724ZM35.5183 3.25673L61.2535 18.0364L35.5183 13.2757V3.25673ZM38.7601 24.004L20.4487 42.4136C20.364 42.4961 20.2522 42.5454 20.1338 42.5526C20.0154 42.5598 19.8984 42.5244 19.8042 42.4528C19.71 42.3812 19.6449 42.2782 19.6208 42.1627C19.5967 42.0472 19.6152 41.9269 19.673 41.8239L34.3837 16.4725L38.7601 24.004ZM33.2491 3.25673V13.2757L7.5464 18.0111L33.2491 3.25673ZM32.1724 15.7701L12.6198 49.4545L2.52859 21.2333L32.1724 15.7701ZM2.26693 27.2308L10.9873 51.6126L2.26693 56.5046V27.2308ZM3.29272 58.5222L12.1219 53.568L29.2108 73.4078L3.29272 58.5222ZM34.386 75.9482L14.8427 53.2594H53.9294L34.386 75.9482ZM39.5613 73.4147L56.6432 53.5841L65.3659 58.5959L39.5613 73.4147ZM66.5075 56.6336L57.7848 51.6241L66.5075 26.9798V56.6336Z" fill="url(#paint10_linear_217_5682)"/>
</g>
<defs>
<linearGradient id="paint0_linear_217_5682" x1="104.401" y1="32.8943" x2="215.163" y2="-41.9125" gradientUnits="userSpaceOnUse">
<stop stop-color="#6CC39A"/>
<stop offset="1" stop-color="#12BDD2"/>
</linearGradient>
<linearGradient id="paint1_linear_217_5682" x1="113.928" y1="46.8405" x2="224.798" y2="-28.8247" gradientUnits="userSpaceOnUse">
<stop stop-color="#6CC39A"/>
<stop offset="1" stop-color="#12BDD2"/>
</linearGradient>
<linearGradient id="paint2_linear_217_5682" x1="121.93" y1="58.3662" x2="232.232" y2="-17.0067" gradientUnits="userSpaceOnUse">
<stop stop-color="#6CC39A"/>
<stop offset="1" stop-color="#12BDD2"/>
</linearGradient>
<linearGradient id="paint3_linear_217_5682" x1="126.914" y1="65.8462" x2="237.857" y2="-9.33906" gradientUnits="userSpaceOnUse">
<stop stop-color="#6CC39A"/>
<stop offset="1" stop-color="#12BDD2"/>
</linearGradient>
<linearGradient id="paint4_linear_217_5682" x1="137.814" y1="81.4675" x2="248.185" y2="6.76976" gradientUnits="userSpaceOnUse">
<stop stop-color="#6CC39A"/>
<stop offset="1" stop-color="#12BDD2"/>
</linearGradient>
<linearGradient id="paint5_linear_217_5682" x1="139.077" y1="87.6767" x2="251.598" y2="8.30757" gradientUnits="userSpaceOnUse">
<stop stop-color="#6CC39A"/>
<stop offset="1" stop-color="#12BDD2"/>
</linearGradient>
<linearGradient id="paint6_linear_217_5682" x1="147.955" y1="96.8976" x2="258.791" y2="21.7498" gradientUnits="userSpaceOnUse">
<stop stop-color="#6CC39A"/>
<stop offset="1" stop-color="#12BDD2"/>
</linearGradient>
<linearGradient id="paint7_linear_217_5682" x1="155.043" y1="107.381" x2="265.888" y2="32.1495" gradientUnits="userSpaceOnUse">
<stop stop-color="#6CC39A"/>
<stop offset="1" stop-color="#12BDD2"/>
</linearGradient>
<linearGradient id="paint8_linear_217_5682" x1="168.652" y1="126.114" x2="279.027" y2="51.4051" gradientUnits="userSpaceOnUse">
<stop stop-color="#6CC39A"/>
<stop offset="1" stop-color="#12BDD2"/>
</linearGradient>
<linearGradient id="paint9_linear_217_5682" x1="173.148" y1="133.667" x2="284" y2="58.6587" gradientUnits="userSpaceOnUse">
<stop stop-color="#6CC39A"/>
<stop offset="1" stop-color="#12BDD2"/>
</linearGradient>
<linearGradient id="paint10_linear_217_5682" x1="-10.4825" y1="71.123" x2="82.1471" y2="5.11551" gradientUnits="userSpaceOnUse">
<stop stop-color="#6CC39A"/>
<stop offset="1" stop-color="#12BDD2"/>
</linearGradient>
<clipPath id="clip0_217_5682">
<rect width="317" height="79" fill="white"/>
</clipPath>
</defs>
</svg>
