<svg width="244" height="61" viewBox="0 0 244 61" fill="none" xmlns="http://www.w3.org/2000/svg">
<g clip-path="url(#clip0_217_5730)">
<path d="M80.3437 18.6965C80.0137 19.1135 79.6901 19.5305 79.3729 19.9475C79.0556 20.3645 78.732 20.7815 78.402 21.1985C78.1307 20.9341 77.8404 20.6902 77.5334 20.4689C77.1494 20.1897 76.7415 19.9455 76.3145 19.7393C75.8236 19.5038 75.3118 19.3153 74.7859 19.1761C74.1991 19.0206 73.5946 18.9434 72.9879 18.9465C71.3897 18.9465 70.2053 19.4053 69.4346 20.323C68.6673 21.2283 68.2556 22.3856 68.2774 23.576C68.2774 24.2726 68.4084 24.8567 68.6702 25.328C68.9254 25.7946 69.2777 26.2001 69.7028 26.5168C70.1491 26.8482 70.6352 27.1214 71.1495 27.33C71.6874 27.5532 72.2452 27.762 72.8229 27.9566C73.732 28.2899 74.7099 28.6861 75.7567 29.1453C76.7985 29.6004 77.7777 30.1889 78.6703 30.8963C79.5736 31.6136 80.3325 32.4986 80.9058 33.5034C81.4984 34.5319 81.7946 35.7693 81.7946 37.2156C81.8126 38.3783 81.5798 39.531 81.1123 40.5941C80.6747 41.5702 80.0398 42.4435 79.2483 43.1583C78.4472 43.8769 77.5137 44.4296 76.5008 44.7848C75.439 45.1627 74.3205 45.3533 73.1944 45.348C72.1598 45.3498 71.1303 45.2024 70.1371 44.9103C69.1897 44.637 68.2751 44.2592 67.4098 43.7838C66.6233 43.3536 65.8825 42.8434 65.1988 42.2614C64.6188 41.7807 64.1108 41.218 63.6904 40.5909L65.8397 38.4226C66.2425 38.8563 66.669 39.2671 67.1171 39.6532C67.6235 40.0913 68.1635 40.4885 68.732 40.8409C69.3272 41.2113 69.9659 41.5058 70.6332 41.7174C71.3564 41.9459 72.1108 42.0585 72.8687 42.0511C73.5693 42.0537 74.2661 41.948 74.9349 41.7378C75.5711 41.5427 76.1664 41.2318 76.6914 40.8205C77.2042 40.4102 77.6192 39.8892 77.906 39.2959C78.2201 38.6322 78.3758 37.9036 78.3605 37.1684C78.3605 36.0569 78.0919 35.1531 77.5547 34.4572C77.0104 33.757 76.337 33.1694 75.5715 32.7266C74.7933 32.2709 73.9689 31.9005 73.1125 31.6215C72.2608 31.344 71.5157 31.0797 70.877 30.8287C70.3802 30.6341 69.7876 30.3699 69.0992 30.0358C68.3829 29.683 67.7216 29.2264 67.1363 28.6808C66.4865 28.071 65.9482 27.3509 65.5459 26.5532C65.1052 25.7057 64.871 24.6685 64.8433 23.4419C64.8174 22.5099 64.9429 21.58 65.2148 20.6889C65.4943 19.7702 65.9601 18.92 66.5827 18.1922C67.2158 17.4419 68.056 16.8304 69.1035 16.3576C70.151 15.8848 71.4337 15.6484 72.9517 15.6484C74.1168 15.6586 75.273 15.8545 76.3773 16.2289C77.5611 16.6208 78.8832 17.4434 80.3437 18.6965Z" fill="url(#paint0_linear_217_5730)"/>
<path d="M93.1359 45.171C92.0857 45.1813 91.0404 45.025 90.0394 44.7078C89.1327 44.4198 88.2936 43.9523 87.5724 43.3331C86.8598 42.7104 86.2993 41.9336 85.9335 41.0619C85.5409 40.1562 85.345 39.116 85.3457 37.9413V23.2969H87.9124V37.8461C87.8992 38.5601 88.0309 39.2693 88.2996 39.9312C88.5404 40.5158 88.9103 41.0387 89.3819 41.461C89.8642 41.883 90.4271 42.2033 91.0369 42.4024C92.4054 42.836 93.875 42.836 95.2436 42.4024C95.8532 42.203 96.4162 41.8828 96.8986 41.461C97.371 41.0362 97.7453 40.5142 97.9959 39.9312C98.2744 39.2718 98.4114 38.5615 98.3981 37.8461V23.2969H100.966V37.9403C100.966 39.1149 100.765 40.1551 100.362 41.0609C99.9866 41.9313 99.4212 42.7072 98.707 43.332C97.9836 43.9521 97.1419 44.4197 96.2325 44.7067C95.2316 45.0244 94.1863 45.1811 93.1359 45.171Z" fill="url(#paint1_linear_217_5730)"/>
<path d="M115.508 25.5362C115.26 25.8433 115.019 26.1504 114.783 26.4575C114.548 26.7646 114.307 27.0721 114.06 27.3799C113.858 27.1848 113.642 27.0049 113.413 26.8416C113.127 26.6362 112.823 26.4564 112.504 26.3043C112.139 26.1306 111.757 25.9917 111.365 25.8894C110.927 25.7743 110.475 25.7174 110.022 25.7203C108.832 25.7203 107.949 26.0582 107.374 26.7341C106.802 27.4011 106.495 28.2538 106.511 29.1309C106.496 29.5803 106.598 30.0259 106.807 30.4246C106.998 30.7679 107.26 31.0664 107.577 31.3001C107.91 31.5436 108.272 31.7448 108.655 31.899C109.055 32.0629 109.471 32.2182 109.902 32.3597C110.58 32.6058 111.309 32.8976 112.089 33.2352C112.865 33.5712 113.595 34.0048 114.26 34.5256C114.932 35.0542 115.497 35.706 115.923 36.4459C116.364 37.2047 116.584 38.1164 116.585 39.181C116.599 40.0373 116.425 40.8864 116.077 41.6693C115.751 42.3884 115.278 43.0319 114.688 43.5587C114.091 44.0878 113.395 44.4948 112.64 44.7565C111.849 45.0349 111.015 45.1753 110.176 45.1714C109.405 45.1738 108.638 45.0663 107.897 44.8523C107.192 44.6506 106.512 44.3724 105.868 44.0225C105.282 43.7056 104.73 43.3299 104.22 42.9012C103.788 42.5475 103.409 42.1337 103.096 41.6725L104.698 40.0767C104.999 40.3964 105.317 40.699 105.652 40.9831C106.029 41.3062 106.431 41.5989 106.854 41.8587C107.297 42.1314 107.773 42.3483 108.27 42.5044C108.808 42.672 109.369 42.755 109.933 42.7501C110.455 42.7516 110.974 42.6738 111.473 42.5193C111.947 42.3757 112.391 42.1467 112.782 41.8438C113.165 41.5423 113.475 41.1592 113.69 40.7225C113.926 40.2316 114.042 39.6921 114.029 39.148C114.029 38.3289 113.829 37.6632 113.428 37.1512C113.023 36.6342 112.521 36.2007 111.95 35.8746C111.37 35.5387 110.756 35.2658 110.118 35.0608C109.481 34.8551 108.927 34.6604 108.455 34.4767C108.085 34.3349 107.644 34.1402 107.13 33.8927C106.597 33.6328 106.104 33.2966 105.667 32.8948C105.183 32.4455 104.782 31.9151 104.482 31.3278C104.153 30.7029 103.979 29.9398 103.959 29.0384C103.94 28.352 104.033 27.6672 104.235 27.0107C104.442 26.3326 104.788 25.7047 105.252 25.1671C105.768 24.5821 106.41 24.1204 107.13 23.816C107.91 23.4699 108.865 23.2969 109.995 23.2969C110.864 23.3037 111.727 23.4473 112.551 23.7224C113.434 24.0104 114.419 24.615 115.508 25.5362Z" fill="url(#paint2_linear_217_5730)"/>
<path d="M134.514 23.2969V25.746H127.303V44.9937H124.746V25.746H117.474V23.2969H134.514Z" fill="url(#paint3_linear_217_5730)"/>
<path d="M153.862 44.9923H151.32C150.727 43.5734 150.13 42.1489 149.528 40.7187C148.926 39.2884 148.328 37.8639 147.736 36.445H140.996C140.404 37.8653 139.806 39.2898 139.204 40.7187C138.602 42.1475 138.005 43.572 137.412 44.9923H134.869C136.463 41.208 138.045 37.4436 139.618 33.6993C141.19 29.9549 142.773 26.1905 144.366 22.4062C145.959 26.1912 147.541 29.9556 149.113 33.6993C150.686 37.4429 152.268 41.2073 153.862 44.9923ZM144.641 29.1019L144.366 28.0816C144.082 29.1039 143.723 30.1038 143.293 31.0731C142.868 32.0404 142.45 33.0176 142.037 34.0048H146.693C146.346 33.1821 146.004 32.363 145.667 31.5475C145.33 30.7319 144.988 29.9168 144.641 29.1019Z" fill="url(#paint4_linear_217_5730)"/>
<path d="M157.234 23.2969H159.897V44.9937H157.234V23.2969Z" fill="url(#paint5_linear_217_5730)"/>
<path d="M183.149 23.3968V46.0593C180.501 43.2349 177.873 40.4291 175.265 37.6418C172.658 34.8546 170.031 32.0466 167.386 29.2179C167.279 29.0731 167.185 28.9391 167.093 28.8148C167.001 28.6904 166.903 28.5575 166.801 28.4128C166.821 28.5779 166.836 28.743 166.847 28.9081C166.857 29.0731 166.872 29.2382 166.894 29.4033V45.0688H164.334V22.4062C166.982 25.2964 169.61 28.1601 172.217 30.9974C174.824 33.8347 177.452 36.6984 180.101 39.5886C180.203 39.7315 180.301 39.8659 180.393 39.9917C180.485 40.115 180.582 40.25 180.686 40.3937C180.664 40.2286 180.649 40.0646 180.639 39.8984C180.628 39.7322 180.613 39.5682 180.593 39.4031V23.3968H183.149Z" fill="url(#paint6_linear_217_5730)"/>
<path d="M187.587 44.9943V15.8281H191.03V41.703H206.047V44.9943H187.587Z" fill="url(#paint7_linear_217_5730)"/>
<path d="M228.235 44.9923H225.693C225.1 43.5734 224.502 42.1489 223.9 40.7187C223.298 39.2884 222.701 37.8639 222.108 36.445H215.368C214.775 37.8653 214.178 39.2898 213.576 40.7187C212.974 42.1475 212.376 43.572 211.783 44.9923H209.242C210.836 41.208 212.419 37.4436 213.991 33.6993C215.564 29.9549 217.147 26.1905 218.74 22.4062C220.332 26.1912 221.915 29.9556 223.489 33.6993C225.063 37.4429 226.645 41.2073 228.235 44.9923ZM219.016 29.1019L218.741 28.0837C218.457 29.106 218.098 30.1059 217.668 31.0753C217.243 32.0425 216.825 33.0198 216.412 34.007H221.069C220.722 33.1843 220.38 32.3652 220.043 31.5496C219.706 30.7341 219.363 29.9182 219.016 29.1019Z" fill="url(#paint8_linear_217_5730)"/>
<path d="M230.365 44.9894V23.2974H235.994C236.921 23.2887 237.845 23.3928 238.747 23.6075C239.51 23.7837 240.232 24.1101 240.869 24.5678C241.458 25.0072 241.929 25.5878 242.238 26.2567C242.567 26.9492 242.731 27.7718 242.731 28.7247C242.731 30.0058 242.428 31.1318 241.823 32.1025C241.218 33.0732 240.3 33.7342 239.07 34.0854C239.655 34.214 240.219 34.4227 240.747 34.7056C241.282 34.9885 241.761 35.3666 242.161 35.8216C242.57 36.29 242.898 36.8243 243.131 37.4021C243.384 38.0425 243.51 38.7269 243.5 39.4161C243.5 40.3461 243.305 41.1569 242.915 41.8487C242.53 42.535 242 43.1274 241.361 43.5837C240.685 44.0633 239.931 44.4199 239.132 44.6374C238.291 44.8752 237.421 44.9951 236.547 44.9937L230.365 44.9894ZM232.916 25.746V32.8418H236.237C237.446 32.8418 238.406 32.5009 239.117 31.8192C239.828 31.1375 240.182 30.239 240.178 29.1238C240.178 27.9077 239.809 27.04 239.071 26.5207C238.333 26.0014 237.369 25.7431 236.179 25.746H232.916ZM232.916 35.2904V42.5418H236.329C236.93 42.5463 237.529 42.4742 238.112 42.3272C238.636 42.1963 239.131 41.9705 239.574 41.6609C239.983 41.3727 240.325 40.9967 240.573 40.56C240.829 40.0852 240.957 39.5507 240.942 39.0105C240.957 38.4239 240.809 37.8447 240.515 37.3377C240.235 36.869 239.851 36.4715 239.393 36.1757C238.897 35.8618 238.351 35.6364 237.778 35.5093C237.163 35.3654 236.534 35.2934 235.902 35.2947L232.916 35.2904Z" fill="url(#paint9_linear_217_5730)"/>
<path d="M52.5861 14.8819L26.8572 0L1.17095 14.8587L0.5 15.2464V45.7411L26.2946 60.6621L26.8572 60.9875L27.4199 60.6621L53.2145 45.7411V15.2464L52.5861 14.8819ZM34.9744 26.7973L38.1854 32.3673L18.8697 37.1478C18.7633 37.1752 18.6506 37.163 18.5526 37.1134C18.4546 37.0638 18.3779 36.9802 18.3368 36.8781C18.2958 36.7761 18.2932 36.6625 18.3295 36.5587C18.3658 36.4548 18.4385 36.3678 18.5342 36.3137L34.9744 26.7973ZM17.0467 34.3343L31.1049 20.1069L34.0975 25.3034L17.4851 34.9069C17.4476 34.9358 17.4048 34.9569 17.3591 34.9692C17.3134 34.9815 17.2658 34.9846 17.2189 34.9784C17.172 34.9722 17.1267 34.9568 17.0858 34.9331C17.0448 34.9094 17.0089 34.8778 16.9802 34.8402C16.9514 34.8026 16.9303 34.7597 16.918 34.714C16.9058 34.6682 16.9027 34.6204 16.9088 34.5735C16.915 34.5265 16.9304 34.4812 16.954 34.4401C16.9777 34.3991 17.0092 34.3631 17.0467 34.3343ZM39.0836 33.9448L42.2147 39.3815H20.1068C20.0176 39.3813 19.9314 39.3484 19.8647 39.289C19.7979 39.2296 19.7551 39.1478 19.7445 39.059C19.7338 38.9702 19.7559 38.8805 19.8066 38.8069C19.8573 38.7333 19.9332 38.6808 20.0199 38.6594L39.0836 33.9448ZM28.5542 12.1787L51.1874 16.3953L43.5371 38.1775L28.5542 12.1787ZM27.727 2.51469L47.4545 13.9269L27.727 10.2508V2.51469ZM30.212 18.5348L16.1752 32.7497C16.1102 32.8134 16.0245 32.8515 15.9338 32.8571C15.8431 32.8627 15.7534 32.8353 15.6812 32.78C15.6089 32.7247 15.559 32.6452 15.5405 32.556C15.5221 32.4668 15.5363 32.374 15.5805 32.2944L26.8572 12.7193L30.212 18.5348ZM25.9875 2.51469V10.2508L6.28478 13.9073L25.9875 2.51469ZM25.1621 12.1769L10.1738 38.1864L2.43832 16.3953L25.1621 12.1769ZM2.23774 21.0263L8.92245 39.8527L2.23774 43.6301V21.0263ZM3.02407 45.188L9.79222 41.3626L22.8918 56.682L3.02407 45.188ZM26.859 58.6436L11.8779 41.1243H41.8402L26.859 58.6436ZM30.8262 56.6873L43.9205 41.3751L50.607 45.2449L30.8262 56.6873ZM51.4821 43.7297L44.7956 39.8616L51.4821 20.8325V43.7297Z" fill="url(#paint10_linear_217_5730)"/>
</g>
<defs>
<linearGradient id="paint0_linear_217_5730" x1="80.53" y1="25.3967" x2="165.821" y2="-31.7906" gradientUnits="userSpaceOnUse">
<stop stop-color="#6CC39A"/>
<stop offset="1" stop-color="#12BDD2"/>
</linearGradient>
<linearGradient id="paint1_linear_217_5730" x1="87.833" y1="36.1676" x2="173.213" y2="-21.6798" gradientUnits="userSpaceOnUse">
<stop stop-color="#6CC39A"/>
<stop offset="1" stop-color="#12BDD2"/>
</linearGradient>
<linearGradient id="paint2_linear_217_5730" x1="93.9668" y1="45.0672" x2="178.91" y2="-12.5571" gradientUnits="userSpaceOnUse">
<stop stop-color="#6CC39A"/>
<stop offset="1" stop-color="#12BDD2"/>
</linearGradient>
<linearGradient id="paint3_linear_217_5730" x1="97.7866" y1="50.8429" x2="183.219" y2="-6.63499" gradientUnits="userSpaceOnUse">
<stop stop-color="#6CC39A"/>
<stop offset="1" stop-color="#12BDD2"/>
</linearGradient>
<linearGradient id="paint4_linear_217_5730" x1="106.143" y1="62.904" x2="191.135" y2="5.79943" gradientUnits="userSpaceOnUse">
<stop stop-color="#6CC39A"/>
<stop offset="1" stop-color="#12BDD2"/>
</linearGradient>
<linearGradient id="paint5_linear_217_5730" x1="107.111" y1="67.6993" x2="193.781" y2="7.00787" gradientUnits="userSpaceOnUse">
<stop stop-color="#6CC39A"/>
<stop offset="1" stop-color="#12BDD2"/>
</linearGradient>
<linearGradient id="paint6_linear_217_5730" x1="113.916" y1="74.8184" x2="199.266" y2="17.369" gradientUnits="userSpaceOnUse">
<stop stop-color="#6CC39A"/>
<stop offset="1" stop-color="#12BDD2"/>
</linearGradient>
<linearGradient id="paint7_linear_217_5730" x1="119.35" y1="82.9133" x2="204.708" y2="25.3997" gradientUnits="userSpaceOnUse">
<stop stop-color="#6CC39A"/>
<stop offset="1" stop-color="#12BDD2"/>
</linearGradient>
<linearGradient id="paint8_linear_217_5730" x1="129.782" y1="97.3781" x2="214.777" y2="40.2647" gradientUnits="userSpaceOnUse">
<stop stop-color="#6CC39A"/>
<stop offset="1" stop-color="#12BDD2"/>
</linearGradient>
<linearGradient id="paint9_linear_217_5730" x1="133.229" y1="103.211" x2="218.591" y2="45.8688" gradientUnits="userSpaceOnUse">
<stop stop-color="#6CC39A"/>
<stop offset="1" stop-color="#12BDD2"/>
</linearGradient>
<linearGradient id="paint10_linear_217_5730" x1="-7.53551" y1="54.9178" x2="63.8175" y2="4.44003" gradientUnits="userSpaceOnUse">
<stop stop-color="#6CC39A"/>
<stop offset="1" stop-color="#12BDD2"/>
</linearGradient>
<clipPath id="clip0_217_5730">
<rect width="243" height="61" fill="white" transform="translate(0.5)"/>
</clipPath>
</defs>
</svg>
